<svg width="86" height="39" viewBox="0 0 86 39" fill="none" xmlns="http://www.w3.org/2000/svg">
<path d="M25.603 32.8771C25.8204 32.8771 26.0289 32.791 26.1826 32.6378C26.3363 32.4847 26.4226 32.2769 26.4226 32.0603L26.4248 8.42113C26.4247 3.7705 30.2081 0 34.8751 0C37.8337 0 40.4373 1.51526 41.947 3.80947L53.088 21.2258L53.108 8.42128C53.108 3.7705 56.8914 0 61.5585 0C64.517 0 67.1206 1.51526 68.6303 3.80947L79.7712 21.2258V0.00249994H85.5632L85.5529 37.5787C85.5528 37.792 85.4854 37.9999 85.3602 38.1729C85.235 38.3459 85.0584 38.4753 84.8554 38.5427C84.6523 38.6102 84.4331 38.6122 84.2288 38.5486C84.0245 38.4851 83.8454 38.359 83.717 38.1884L63.7935 6.9194C63.3092 6.20501 62.4889 5.73517 61.5585 5.73517C60.0698 5.73517 58.863 6.93779 58.863 8.42128L58.8695 37.5787C58.8694 37.792 58.802 37.9999 58.6768 38.1729C58.5516 38.3458 58.3749 38.4752 58.1719 38.5426C57.9688 38.6101 57.7496 38.6121 57.5453 38.5486C57.341 38.485 57.1619 38.359 57.0335 38.1884L37.1103 6.9194C36.6258 6.20501 35.8057 5.73517 34.8751 5.73517C33.3866 5.73517 32.1798 6.93779 32.1798 8.42128L32.1919 37.8097C32.1919 38.0264 32.1055 38.2341 31.9518 38.3873C31.7981 38.5404 31.5897 38.6265 31.3723 38.6265L16.0731 38.6234C7.44313 38.6234 0.446976 31.6002 0.446976 23.0002C0.446976 14.4001 7.44313 7.37675 16.0731 7.37675C16.0731 7.37675 24.6757 7.34337 24.6757 7.37675V13.1697L16.0731 13.1632C10.6216 13.1632 6.20209 17.5674 6.20209 23.0002C6.20209 28.4327 10.6216 32.8882 16.0731 32.8882L25.603 32.8771Z" fill="white"/>
</svg>
